# xmcd
#
# Track frame offsets:
#	150
#	19181
#	33691
#	45693
#	64442
#	78730
#	92414
#	110191
#	124589
#	137113
#	151250
#	164444
#	178092
#	190092
#	206740
#
# Disc length: 2987 seconds
#
# Revision: 1
# Processed by: cddbd v1.5.2PL0 Copyright (c) Steve Scherf et al.
# Submitted via: EasyCDDAExtractor 16.0.9.1
#
DISCID=d80ba90f
DTITLE=Who See - Nemam Ti Kad
DYEAR=2014
DGENRE=Rap/Hip-Hop
TTITLE0=Nemam Ti Kad (feat. Sean Price)
TTITLE1=Đe Se Kupaš
TTITLE2=Pušti Đaola
TTITLE3=Zabolje Me Glava (feat. Baby Dooks)
TTITLE4=Podstanar
TTITLE5=Ja Bih (feat. Maat Bandy)
TTITLE6=Legalizacija (feat. Kid Rađa)
TTITLE7=Što Piješ Kad Ti Škodi
TTITLE8=Kruzer
TTITLE9=Po Puteva
TTITLE10=Album Slika s Ljeta
TTITLE11=Dugovi
TTITLE12=Dinamida
TTITLE13=Milost i Slava (feat. DJ Raid)
TTITLE14=Prevaspitaj Đecu (feat. Kendi, Random)
EXTD=
EXTT0=
EXTT1=
EXTT2=
EXTT3=
EXTT4=
EXTT5=
EXTT6=
EXTT7=
EXTT8=
EXTT9=
EXTT10=
EXTT11=
EXTT12=
EXTT13=
EXTT14=
PLAYORDER=
